<?xml version="1.0" encoding="UTF-8" standalone="no"?>
<!-- Generator: Adobe Illustrator 13.0.0, SVG Export Plug-In . SVG Version: 6.00 Build 14948)  -->

<svg
   xmlns:dc="http://purl.org/dc/elements/1.1/"
   xmlns:cc="http://creativecommons.org/ns#"
   xmlns:rdf="http://www.w3.org/1999/02/22-rdf-syntax-ns#"
   xmlns:svg="http://www.w3.org/2000/svg"
   xmlns="http://www.w3.org/2000/svg"
   xmlns:sodipodi="http://sodipodi.sourceforge.net/DTD/sodipodi-0.dtd"
   xmlns:inkscape="http://www.inkscape.org/namespaces/inkscape"
   version="1.1"
   id="Ebene_1"
   x="0px"
   y="0px"
   width="353.34961mm"
   height="194.65056mm"
   viewBox="0 0 1252.0262 689.70671"
   enable-background="new 0 0 1181.16 335.376"
   xml:space="preserve"
   inkscape:version="0.91 r13725"
   sodipodi:docname="logo_uni_siegen_4c.svg"><metadata
     id="metadata15"><rdf:RDF><cc:Work
         rdf:about=""><dc:format>image/svg+xml</dc:format><dc:type
           rdf:resource="http://purl.org/dc/dcmitype/StillImage" /><dc:title /></cc:Work></rdf:RDF></metadata><defs
     id="defs13" /><sodipodi:namedview
     pagecolor="#ffffff"
     bordercolor="#666666"
     borderopacity="1"
     objecttolerance="10"
     gridtolerance="10"
     guidetolerance="10"
     inkscape:pageopacity="0"
     inkscape:pageshadow="2"
     inkscape:window-width="3840"
     inkscape:window-height="2082"
     id="namedview11"
     showgrid="false"
     units="mm"
     fit-margin-top="100"
     fit-margin-left="10"
     fit-margin-right="10"
     fit-margin-bottom="0"
     inkscape:zoom="0.67717132"
     inkscape:cx="554.91941"
     inkscape:cy="-521.86458"
     inkscape:window-x="0"
     inkscape:window-y="0"
     inkscape:window-maximized="1"
     inkscape:current-layer="g3" /><g
     id="g3"
     transform="translate(35.433071,354.33071)"><path
       d="m 422.208,216.792 c 16.632,0 28.512,-5.76 34.128,-17.424 2.304,-4.68 3.384,-10.728 3.384,-17.784 l 0,-56.664 -16.488,0 0,55.44 c 0,4.968 -0.792,9.072 -2.448,12.384 -3.168,6.48 -9.504,10.152 -18.576,10.152 -9.072,0 -15.336,-3.672 -18.504,-10.152 -1.656,-3.312 -2.52,-7.416 -2.52,-12.24 l 0,-55.584 -16.488,0 0,56.664 c 0,6.912 1.152,12.96 3.456,17.64 5.472,11.808 17.352,17.568 34.056,17.568 l 0,0 z m 58.824,-1.368 16.488,0 0,-51.336 c 0,-5.04 0,-10.296 -0.216,-14.04 l 0.216,0 c 3.024,4.32 6.192,8.856 10.224,13.896 l 39.96,51.48 15.12,0 0,-90.504 -16.632,0 0,48.168 c 0,4.968 0,10.44 0.288,15.264 l -0.288,0 c -2.736,-4.104 -6.048,-8.64 -10.152,-14.04 l -38.664,-49.392 -16.344,0 0,90.504 0,0 z m 103.608,0 16.416,0 0,-90.504 -16.416,0 0,90.504 0,0 z m 65.376,0.576 13.32,0 37.008,-91.08 -17.928,0 -18.792,49.032 c -2.88,7.272 -4.968,13.32 -6.768,18.504 l -0.216,0 c -1.944,-5.328 -4.032,-11.376 -6.624,-18.432 l -18.936,-49.104 -18,0 36.936,91.08 0,0 z m 62.28,-0.576 50.112,0 0,-13.464 -33.624,0 0,-25.992 28.944,0 0,-13.392 -28.944,0 0,-24.192 29.088,0 4.392,-13.464 -49.968,0 0,90.504 0,0 z m 68.976,0 16.488,0 0,-35.352 7.776,0 c 2.232,0.576 5.544,4.32 9.936,12.384 l 13.032,22.968 19.008,0 L 832.392,189 c -4.824,-8.208 -8.568,-13.176 -11.304,-14.688 l 0,-0.288 c 10.44,-3.24 17.712,-11.16 17.712,-23.256 0,-9.216 -3.816,-17.568 -13.464,-22.104 -4.752,-2.376 -10.872,-3.744 -19.368,-3.744 l -24.696,0 0,90.504 0,0 z m 16.488,-48.816 0,-28.224 7.56,0 c 4.896,0 7.92,1.08 10.152,2.592 3.96,2.376 6.048,6.624 6.048,11.448 0,5.616 -2.448,9.72 -6.336,11.952 -2.736,1.512 -5.76,2.232 -10.008,2.232 l -7.416,0 0,0 z m 60.048,42.336 c 6.84,4.824 16.776,7.848 27.36,7.848 18.504,0 32.256,-9.864 32.256,-25.992 0,-28.656 -39.168,-26.424 -39.168,-43.056 0,-7.272 6.048,-9.792 12.384,-9.792 7.128,0 14.4,2.088 21.6,5.832 l 0,-15.12 c -4.968,-2.52 -12.816,-4.536 -22.176,-4.536 -18.792,0 -29.376,11.664 -29.376,24.984 0,27.576 39.168,25.344 39.168,43.056 0,7.848 -7.56,10.728 -15.12,10.728 -8.28,0 -15.12,-2.88 -20.52,-6.552 l -6.408,12.6 0,0 z m 77.616,6.48 16.488,0 0,-90.504 -16.488,0 0,90.504 0,0 z m 55.8,0 16.488,0 0,-77.04 24.336,0 4.248,-13.464 -71.424,0 0,13.464 26.352,0 0,77.04 0,0 z m 38.88,0 35.064,-90.936 12.6,0 36.288,90.936 -17.424,0 -8.784,-22.68 -32.328,0 -8.496,22.68 -16.92,0 0,0 z m 30.24,-36.144 22.392,0 -6.336,-17.928 c -2.448,-6.912 -3.672,-11.016 -4.536,-14.04 l -0.216,0 c -0.864,3.168 -2.232,7.128 -4.68,14.184 l -6.624,17.784 0,0 z m -1.944,-60.12 c 4.68,0 8.568,-3.744 8.568,-8.352 0,-4.68 -3.888,-8.568 -8.568,-8.568 -4.536,0 -8.352,3.888 -8.352,8.568 0,4.608 3.816,8.352 8.352,8.352 l 0,0 z m 26.28,0 c 4.536,0 8.352,-3.744 8.352,-8.352 0,-4.68 -3.816,-8.568 -8.352,-8.568 -4.68,0 -8.424,3.888 -8.424,8.568 0,4.608 3.744,8.352 8.424,8.352 l 0,0 z m 51.408,96.264 16.488,0 0,-77.04 24.336,0 4.248,-13.464 -71.496,0 0,13.464 26.424,0 0,77.04 z"
       id="path5"
       inkscape:connector-curvature="0"
       style="clip-rule:evenodd;fill-rule:evenodd" /><path
       d="m 381.312,327.528 c 6.912,4.824 16.776,7.848 27.36,7.848 18.576,0 32.256,-9.864 32.256,-25.992 0,-28.728 -39.096,-26.496 -39.096,-43.128 0,-7.272 5.976,-9.792 12.312,-9.792 7.2,0 14.472,2.088 21.6,5.832 l 0,-15.12 c -4.968,-2.52 -12.816,-4.536 -22.104,-4.536 -18.864,0 -29.448,11.664 -29.448,24.984 0,27.648 39.168,25.416 39.168,43.128 0,7.848 -7.56,10.728 -15.12,10.728 -8.208,0 -15.12,-2.88 -20.448,-6.552 l -6.48,12.6 0,0 z m 77.616,6.48 16.56,0 0,-90.576 -16.56,0 0,90.576 0,0 z m 38.52,0 50.184,0 0,-13.464 -33.696,0 0,-25.992 29.016,0 0,-13.464 -29.016,0 0,-24.192 29.16,0 4.392,-13.464 -50.04,0 0,90.576 0,0 z m 145.296,-43.992 -16.632,0 0,28.728 c -3.528,1.656 -9.072,2.736 -15.12,2.736 -19.512,0 -30.816,-12.744 -30.816,-32.256 0,-19.296 11.448,-32.76 33.336,-32.76 9.72,0 17.856,2.52 24.984,6.048 l 0,-15.336 c -6.84,-2.52 -15.696,-4.536 -26.208,-4.536 -30.096,0 -49.68,20.16 -49.68,47.664 0,25.992 17.568,45.072 47.16,45.072 12.672,0 24.768,-3.168 32.976,-7.272 l 0,-38.088 0,0 z m 20.88,43.992 50.184,0 0,-13.464 -33.696,0 0,-25.992 29.016,0 0,-13.464 -29.016,0 0,-24.192 29.16,0 4.392,-13.464 -50.04,0 0,90.576 0,0 z m 68.976,0 16.488,0 0,-51.408 c 0,-5.112 0,-10.296 -0.216,-14.04 l 0.216,0 c 3.024,4.248 6.192,8.784 10.224,13.896 l 39.96,51.552 15.12,0 0,-90.576 -16.632,0 0,48.24 c 0,4.968 0,10.44 0.288,15.264 l -0.288,0 c -2.736,-4.104 -6.048,-8.64 -10.152,-14.04 l -38.592,-49.464 -16.416,0 0,90.576 z"
       id="path7"
       inkscape:connector-curvature="0"
       style="clip-rule:evenodd;fill-rule:evenodd" /><path
       d="m 0,124.92 124.92,0 0,125.568 c 0,49.824 59.04,32.976 59.04,0 l 0,-135.576 -24.552,18.432 L 158.616,65.088 246.744,0 l 87.408,65.088 0,68.256 -25.344,-19.152 0,219.816 -124.848,0 0,-16.848 C 133.344,350.136 0,345.528 0,233.64 L 0,124.92 Z"
       id="path9"
       inkscape:connector-curvature="0"
       style="clip-rule:evenodd;fill:#000080;fill-rule:evenodd;fill-opacity:1" /></g></svg>