<?xml version="1.0" encoding="UTF-8" standalone="no"?>
<svg
   xmlns:dc="http://purl.org/dc/elements/1.1/"
   xmlns:cc="http://creativecommons.org/ns#"
   xmlns:rdf="http://www.w3.org/1999/02/22-rdf-syntax-ns#"
   xmlns:svg="http://www.w3.org/2000/svg"
   xmlns="http://www.w3.org/2000/svg"
   xmlns:sodipodi="http://sodipodi.sourceforge.net/DTD/sodipodi-0.dtd"
   xmlns:inkscape="http://www.inkscape.org/namespaces/inkscape"
   viewBox="0 0 800 479.08001"
   height="479.07999"
   width="800"
   xml:space="preserve"
   id="svg2"
   version="1.1"
   sodipodi:docname="protech_logo.svg"
   inkscape:version="0.92.4 (5da689c313, 2019-01-14)"><sodipodi:namedview
     pagecolor="#ffffff"
     bordercolor="#666666"
     borderopacity="1"
     objecttolerance="10"
     gridtolerance="10"
     guidetolerance="10"
     inkscape:pageopacity="0"
     inkscape:pageshadow="2"
     inkscape:window-width="3840"
     inkscape:window-height="2088"
     id="namedview44"
     showgrid="false"
     fit-margin-top="200"
     fit-margin-left="0"
     fit-margin-right="0"
     fit-margin-bottom="0"
     inkscape:zoom="0.86274292"
     inkscape:cx="-747.29842"
     inkscape:cy="351.68514"
     inkscape:window-x="0"
     inkscape:window-y="0"
     inkscape:window-maximized="1"
     inkscape:current-layer="svg2" /><metadata
     id="metadata8"><rdf:RDF><cc:Work
         rdf:about=""><dc:format>image/svg+xml</dc:format><dc:type
           rdf:resource="http://purl.org/dc/dcmitype/StillImage" /><dc:title></dc:title></cc:Work></rdf:RDF></metadata><defs
     id="defs6" /><g
     transform="matrix(1.3333333,0,0,-1.3333333,0,479.07999)"
     id="g10"><g
       transform="scale(0.1)"
       id="g12"><path
         id="path14"
         style="fill:#231f20;fill-opacity:1;fill-rule:nonzero;stroke:none"
         d="M 42.3867,4.19141 H 2.16797 V 410.32 H 42.3867 V 4.19141"
         inkscape:connector-curvature="0" /><path
         id="path16"
         style="fill:#231f20;fill-opacity:1;fill-rule:nonzero;stroke:none"
         d="M 262.742,410.32 V 94.1797 L 140.684,410.32 H 102.973 V 4.46875 h 39.664 V 320.531 L 264.141,4.46875 h 38.265 V 410.32 h -39.664"
         inkscape:connector-curvature="0" /><path
         id="path18"
         style="fill:#231f20;fill-opacity:1;fill-rule:nonzero;stroke:none"
         d="m 398.043,10.4805 c -14.621,6.9883 -25.555,17.539 -32.813,31.6914 -7.265,14.1484 -10.894,31.8476 -10.894,53.0781 v 20.109 H 394 V 95.25 c 0,-19.5586 4.891,-34.168 14.656,-43.8594 9.785,-9.6797 24.629,-14.5195 44.559,-14.5195 19.363,0 33.836,4.8398 43.441,14.5195 9.574,9.6914 14.375,24.3008 14.375,43.8594 v 24.012 c 0,13.039 -2.886,24.168 -8.66,33.386 -5.769,9.223 -13.176,16.954 -22.211,23.192 -9.031,6.242 -20.613,12.89 -34.769,19.961 -0.555,0.179 -1.075,0.429 -1.543,0.699 -0.465,0.281 -0.875,0.512 -1.25,0.691 l -3.91,1.969 c -18.434,9.121 -33.2,17.399 -44.262,24.852 -11.098,7.449 -20.5,17.457 -28.227,30.039 -7.726,12.57 -11.586,28.148 -11.586,46.781 v 19.816 c 0,20.864 3.633,38.274 10.895,52.243 7.262,13.961 18.152,24.39 32.68,31.289 14.523,6.879 32.773,10.332 54.746,10.332 21.226,0 38.918,-3.492 53.074,-10.473 14.148,-6.98 24.762,-17.508 31.84,-31.559 7.074,-14.07 10.613,-31.71 10.613,-52.941 v -21.23 h -39.66 v 21.23 c 0,19.359 -4.66,33.883 -13.973,43.57 -9.305,9.692 -23.273,14.52 -41.894,14.52 -19.551,0 -34.223,-4.598 -43.985,-13.82 -9.789,-9.207 -14.672,-23.039 -14.672,-41.477 V 302.5 c 0,-12.469 3.071,-23.09 9.219,-31.84 6.145,-8.762 13.727,-15.969 22.77,-21.64 9.015,-5.68 21.453,-12.34 37.285,-19.981 1.488,-0.738 2.937,-1.437 4.32,-2.09 1.41,-0.648 2.848,-1.359 4.336,-2.097 0.742,-0.372 1.438,-0.692 2.102,-0.973 0.636,-0.277 1.25,-0.609 1.808,-0.981 15.27,-7.636 28.16,-15.5 38.68,-23.597 10.519,-8.102 19.141,-18.582 25.844,-31.43 6.703,-12.851 10.05,-28.492 10.05,-46.93 V 95.25 c 0,-21.2305 -3.586,-38.8711 -10.753,-52.9297 C 532.766,28.2617 521.965,17.6914 507.535,10.6094 493.102,3.53125 475,0 453.215,0 431.055,0 412.66,3.49219 398.043,10.4805"
         inkscape:connector-curvature="0" /><path
         id="path20"
         style="fill:#231f20;fill-opacity:1;fill-rule:nonzero;stroke:none"
         d="M 771.891,410.32 H 574.688 V 372.891 H 653.18 V 4.19141 h 40.218 V 372.891 h 78.493 v 37.429"
         inkscape:connector-curvature="0" /><path
         id="path22"
         style="fill:#231f20;fill-opacity:1;fill-rule:nonzero;stroke:none"
         d="M 844.766,4.19141 H 804.543 V 410.32 h 40.223 V 4.19141"
         inkscape:connector-curvature="0" /><path
         id="path24"
         style="fill:#231f20;fill-opacity:1;fill-rule:nonzero;stroke:none"
         d="M 1074.61,410.32 H 877.418 v -37.429 h 78.484 V 4.19141 h 40.227 V 372.891 h 78.481 v 37.429"
         inkscape:connector-curvature="0" /><path
         id="path26"
         style="fill:#231f20;fill-opacity:1;fill-rule:nonzero;stroke:none"
         d="m 1139.39,10.4805 c -13.59,6.9883 -23.79,17.539 -30.59,31.6914 -6.8,14.1484 -10.19,31.8476 -10.19,53.0781 v 315.07 h 40.22 V 93.2891 c 0,-18.0586 4.34,-31.5586 12.98,-40.5 8.67,-8.9375 21.66,-13.4102 38.98,-13.4102 17.5,0 30.63,4.4727 39.38,13.4102 8.75,8.9414 13.13,22.4414 13.13,40.5 V 410.32 h 40.22 V 95.25 c 0,-21.2305 -3.45,-38.8711 -10.34,-52.9297 -6.89,-14.0586 -17.17,-24.6289 -30.87,-31.7109 C 1228.64,3.53125 1211.46,0 1190.79,0 c -20.67,0 -37.81,3.49219 -51.4,10.4805"
         inkscape:connector-curvature="0" /><path
         id="path28"
         style="fill:#231f20;fill-opacity:1;fill-rule:nonzero;stroke:none"
         d="m 1504.71,410.32 h -197.2 V 372.891 H 1386 V 4.19141 h 40.23 V 372.891 h 78.48 v 37.429"
         inkscape:connector-curvature="0" /><path
         id="path30"
         style="fill:#231f20;fill-opacity:1;fill-rule:nonzero;stroke:none"
         d="m 1764.98,74.8594 c 0,-10.6211 -2.6,-18.8086 -7.82,-24.5781 -5.21,-5.7813 -12.66,-8.6602 -22.35,-8.6602 h -80.43 V 372.891 h 80.43 c 9.69,0 17.14,-2.879 22.35,-8.661 5.22,-5.781 7.82,-13.968 7.82,-24.589 z m 31.85,302.0816 c -5.59,10.899 -13.78,19.18 -24.58,24.86 -10.8,5.687 -23.84,8.519 -39.11,8.519 h -78.76 -18.44 -21.79 V 4.19141 h 21.79 18.44 78.48 c 15.27,0 28.31,2.84765 39.11,8.51949 10.79,5.6797 19.03,13.9688 24.72,24.8594 5.67,10.8906 8.52,24.0703 8.52,39.5195 V 337.422 c 0,15.449 -2.8,28.629 -8.38,39.519"
         inkscape:connector-curvature="0" /><path
         id="path32"
         style="fill:#231f20;fill-opacity:1;fill-rule:nonzero;stroke:none"
         d="M 2034.22,372.891 V 410.32 H 1859.93 V 4.19141 h 27.65 12.57 134.07 V 41.6211 H 1900.15 V 187.141 h 120.1 v 37.429 h -120.1 v 148.321 h 134.07"
         inkscape:connector-curvature="0" /><path
         id="path34"
         style="fill:#231f20;fill-opacity:1;fill-rule:nonzero;stroke:none"
         d="m 2115.2,213.391 v 159.781 h 59.77 c 12.1,0 22.48,-2.371 31.15,-7.121 8.65,-4.742 15.26,-11.641 19.82,-20.672 4.56,-9.027 6.85,-19.891 6.85,-32.539 v -41.91 c 0,-12.098 -2.29,-22.481 -6.85,-31.129 -4.56,-8.66 -11.17,-15.231 -19.82,-19.699 -8.67,-4.473 -19.05,-6.711 -31.15,-6.711 z M 2284.46,4.19141 2224.61,186.309 c 0.66,0.3 1.39,0.511 2.03,0.832 15.08,7.449 26.58,18.308 34.49,32.539 7.91,14.25 11.88,31.332 11.88,51.25 v 47.492 c 0,19.367 -3.97,35.988 -11.88,49.867 -7.91,13.859 -19.41,24.391 -34.49,31.563 -15.08,7.168 -33.24,10.738 -54.47,10.738 h -56.97 -15.37 -24.86 V 4.19141 h 40.23 V 175.969 h 56.97 c 5.26,0 10.33,0.242 15.21,0.691 L 2237.81,4.19141 h 46.65"
         inkscape:connector-curvature="0" /><path
         id="path36"
         style="fill:#231f20;fill-opacity:1;fill-rule:nonzero;stroke:none"
         d="m 2452.84,10.4805 c -13.6,6.9883 -23.8,17.539 -30.59,31.6914 -6.8,14.1484 -10.19,31.8476 -10.19,53.0781 v 315.07 h 40.22 V 93.2891 c 0,-18.0586 4.33,-31.5586 12.98,-40.5 8.67,-8.9375 21.65,-13.4102 38.97,-13.4102 17.5,0 30.63,4.4727 39.38,13.4102 8.76,8.9414 13.13,22.4414 13.13,40.5 V 410.32 h 40.22 V 95.25 c 0,-21.2305 -3.44,-38.8711 -10.33,-52.9297 -6.89,-14.0586 -17.17,-24.6289 -30.87,-31.7109 C 2542.08,3.53125 2524.9,0 2504.23,0 c -20.67,0 -37.8,3.49219 -51.39,10.4805"
         inkscape:connector-curvature="0" /><path
         id="path38"
         style="fill:#231f20;fill-opacity:1;fill-rule:nonzero;stroke:none"
         d="M 2808.66,410.32 V 94.1797 L 2686.6,410.32 h -37.71 V 4.46875 h 39.66 V 320.531 L 2810.06,4.46875 h 38.27 V 410.32 h -39.67"
         inkscape:connector-curvature="0" /><path
         id="path40"
         style="fill:#231f20;fill-opacity:1;fill-rule:nonzero;stroke:none"
         d="m 2949.13,4.19141 h -40.22 V 410.32 h 40.22 V 4.19141"
         inkscape:connector-curvature="0" /><path
         id="path42"
         style="fill:#231f20;fill-opacity:1;fill-rule:nonzero;stroke:none"
         d="m 2984.58,410.32 h 42.46 L 3093.79,50 3160.55,410.32 H 3203 L 3120.88,4.19141 h -54.19 L 2984.58,410.32"
         inkscape:connector-curvature="0" /><path
         id="path44"
         style="fill:#231f20;fill-opacity:1;fill-rule:nonzero;stroke:none"
         d="m 3406.88,372.891 v 37.429 h -174.3 V 4.19141 h 27.66 12.57 134.07 V 41.6211 H 3272.81 V 187.141 h 120.11 v 37.429 h -120.11 v 148.321 h 134.07"
         inkscape:connector-curvature="0" /><path
         id="path46"
         style="fill:#231f20;fill-opacity:1;fill-rule:nonzero;stroke:none"
         d="m 3487.86,213.391 v 159.781 h 59.77 c 12.1,0 22.48,-2.371 31.15,-7.121 8.65,-4.742 15.26,-11.641 19.82,-20.672 4.56,-9.027 6.84,-19.891 6.84,-32.539 v -41.91 c 0,-12.098 -2.28,-22.481 -6.84,-31.129 -4.56,-8.66 -11.17,-15.231 -19.82,-19.699 -8.67,-4.473 -19.05,-6.711 -31.15,-6.711 z M 3657.12,4.19141 3597.28,186.309 c 0.65,0.3 1.38,0.511 2.02,0.832 15.09,7.449 26.57,18.308 34.49,32.539 7.91,14.25 11.88,31.332 11.88,51.25 v 47.492 c 0,19.367 -3.97,35.988 -11.88,49.867 -7.92,13.859 -19.4,24.391 -34.49,31.563 -15.08,7.168 -33.24,10.738 -54.46,10.738 h -56.98 -15.36 -24.87 V 4.19141 h 40.23 V 175.969 h 56.98 c 5.25,0 10.32,0.242 15.2,0.691 L 3610.47,4.19141 h 46.65"
         inkscape:connector-curvature="0" /><path
         id="path48"
         style="fill:#231f20;fill-opacity:1;fill-rule:nonzero;stroke:none"
         d="m 3745.78,10.4805 c -14.62,6.9883 -25.56,17.539 -32.83,31.6914 -7.25,14.1484 -10.88,31.8476 -10.88,53.0781 v 20.109 h 39.66 V 95.25 c 0,-19.5586 4.9,-34.168 14.65,-43.8594 9.8,-9.6797 24.64,-14.5195 44.56,-14.5195 19.37,0 33.84,4.8398 43.44,14.5195 9.58,9.6914 14.38,24.3008 14.38,43.8594 v 24.012 c 0,13.039 -2.89,24.168 -8.66,33.386 -5.77,9.223 -13.18,16.954 -22.2,23.192 -9.04,6.242 -20.63,12.89 -34.78,19.961 -0.56,0.179 -1.07,0.429 -1.54,0.699 -0.46,0.281 -0.88,0.512 -1.25,0.691 l -3.91,1.969 c -18.44,9.121 -33.2,17.399 -44.27,24.852 -11.09,7.449 -20.49,17.457 -28.22,30.039 -7.72,12.57 -11.58,28.148 -11.58,46.781 v 19.816 c 0,20.864 3.62,38.274 10.89,52.243 7.26,13.961 18.15,24.39 32.68,31.289 14.52,6.879 32.78,10.332 54.75,10.332 21.22,0 38.91,-3.492 53.07,-10.473 14.15,-6.98 24.76,-17.508 31.84,-31.559 7.07,-14.07 10.61,-31.71 10.61,-52.941 v -21.23 h -39.66 v 21.23 c 0,19.359 -4.66,33.883 -13.97,43.57 -9.31,9.692 -23.28,14.52 -41.89,14.52 -19.56,0 -34.23,-4.598 -44,-13.82 -9.78,-9.207 -14.66,-23.039 -14.66,-41.477 V 302.5 c 0,-12.469 3.07,-23.09 9.22,-31.84 6.14,-8.762 13.73,-15.969 22.77,-21.64 9.01,-5.68 21.45,-12.34 37.27,-19.981 1.5,-0.738 2.94,-1.437 4.33,-2.09 1.41,-0.648 2.85,-1.359 4.34,-2.097 0.74,-0.372 1.43,-0.692 2.1,-0.973 0.64,-0.277 1.25,-0.609 1.81,-0.981 15.27,-7.636 28.16,-15.5 38.67,-23.597 10.53,-8.102 19.15,-18.582 25.85,-31.43 6.7,-12.851 10.05,-28.492 10.05,-46.93 V 95.25 c 0,-21.2305 -3.58,-38.8711 -10.76,-52.9297 -7.17,-14.0586 -17.97,-24.6289 -32.39,-31.7109 C 3840.83,3.53125 3822.73,0 3800.94,0 c -22.16,0 -40.55,3.49219 -55.16,10.4805"
         inkscape:connector-curvature="0" /><path
         id="path50"
         style="fill:#231f20;fill-opacity:1;fill-rule:nonzero;stroke:none"
         d="m 3996.44,4.19141 h -40.22 V 410.32 h 40.22 V 4.19141"
         inkscape:connector-curvature="0" /><path
         id="path52"
         style="fill:#231f20;fill-opacity:1;fill-rule:nonzero;stroke:none"
         d="M 4226.29,410.32 H 4029.1 v -37.429 h 78.48 V 4.19141 h 40.23 V 372.891 h 78.48 v 37.429"
         inkscape:connector-curvature="0" /><path
         id="path54"
         style="fill:#231f20;fill-opacity:1;fill-rule:nonzero;stroke:none"
         d="m 4410.89,486.57 h -40.22 v -40.23 h 40.22 v 40.23"
         inkscape:connector-curvature="0" /><path
         id="path56"
         style="fill:#231f20;fill-opacity:1;fill-rule:nonzero;stroke:none"
         d="m 4300.3,140.211 45.79,225.141 45.79,-225.141 z M 4419.56,4.19141 h 44.68 L 4370.4,410.32 h -48.61 L 4227.94,4.19141 h 44.69 l 20.06,98.59759 h 106.81 l 20.06,-98.59759"
         inkscape:connector-curvature="0" /><path
         id="path58"
         style="fill:#231f20;fill-opacity:1;fill-rule:nonzero;stroke:none"
         d="m 4321.51,486.57 h -40.22 v -40.23 h 40.22 v 40.23"
         inkscape:connector-curvature="0" /><path
         id="path60"
         style="fill:#231f20;fill-opacity:1;fill-rule:nonzero;stroke:none"
         d="m 4657.5,410.32 h -197.19 v -37.429 h 78.48 V 4.19141 h 40.23 V 372.891 h 78.48 v 37.429"
         inkscape:connector-curvature="0" /><path
         id="path62"
         style="fill:#231f20;fill-opacity:1;fill-rule:nonzero;stroke:none"
         d="m 4807.86,10.4805 c -14.62,6.9883 -25.55,17.539 -32.82,31.6914 -7.26,14.1484 -10.88,31.8476 -10.88,53.0781 v 20.109 h 39.65 V 95.25 c 0,-19.5586 4.9,-34.168 14.66,-43.8594 9.79,-9.6797 24.63,-14.5195 44.56,-14.5195 19.37,0 33.84,4.8398 43.44,14.5195 9.58,9.6914 14.37,24.3008 14.37,43.8594 v 24.012 c 0,13.039 -2.88,24.168 -8.65,33.386 -5.77,9.223 -13.18,16.954 -22.21,23.192 -9.04,6.242 -20.62,12.89 -34.77,19.961 -0.56,0.179 -1.07,0.429 -1.54,0.699 -0.47,0.281 -0.88,0.512 -1.25,0.691 l -3.92,1.969 c -18.43,9.121 -33.19,17.399 -44.26,24.852 -11.09,7.449 -20.49,17.457 -28.22,30.039 -7.73,12.57 -11.59,28.148 -11.59,46.781 v 19.816 c 0,20.864 3.63,38.274 10.9,52.243 7.25,13.961 18.15,24.39 32.67,31.289 14.52,6.879 32.78,10.332 54.75,10.332 21.23,0 38.92,-3.492 53.08,-10.473 14.15,-6.98 24.76,-17.508 31.83,-31.559 7.08,-14.07 10.62,-31.71 10.62,-52.941 v -21.23 h -39.66 v 21.23 c 0,19.359 -4.66,33.883 -13.98,43.57 -9.3,9.692 -23.27,14.52 -41.89,14.52 -19.55,0 -34.22,-4.598 -43.99,-13.82 -9.78,-9.207 -14.66,-23.039 -14.66,-41.477 V 302.5 c 0,-12.469 3.06,-23.09 9.22,-31.84 6.14,-8.762 13.72,-15.969 22.76,-21.64 9.02,-5.68 21.45,-12.34 37.28,-19.981 1.5,-0.738 2.94,-1.437 4.33,-2.09 1.41,-0.648 2.84,-1.359 4.34,-2.097 0.74,-0.372 1.43,-0.692 2.1,-0.973 0.63,-0.277 1.25,-0.609 1.8,-0.981 15.28,-7.636 28.17,-15.5 38.68,-23.597 10.52,-8.102 19.14,-18.582 25.84,-31.43 6.71,-12.851 10.06,-28.492 10.06,-46.93 V 95.25 c 0,-21.2305 -3.59,-38.8711 -10.76,-52.9297 -7.17,-14.0586 -17.97,-24.6289 -32.4,-31.7109 C 4902.92,3.53125 4884.82,0 4863.03,0 c -22.16,0 -40.55,3.49219 -55.17,10.4805"
         inkscape:connector-curvature="0" /><path
         id="path64"
         style="fill:#231f20;fill-opacity:1;fill-rule:nonzero;stroke:none"
         d="m 5058.53,4.19141 h -40.22 V 410.32 h 40.22 V 4.19141"
         inkscape:connector-curvature="0" /><path
         id="path66"
         style="fill:#231f20;fill-opacity:1;fill-rule:nonzero;stroke:none"
         d="M 5293.4,372.891 V 410.32 H 5119.11 V 4.19141 h 27.65 12.57 134.07 V 41.6211 H 5159.33 V 187.141 h 120.11 v 37.429 h -120.11 v 148.321 h 134.07"
         inkscape:connector-curvature="0" /><path
         id="path68"
         style="fill:#231f20;fill-opacity:1;fill-rule:nonzero;stroke:none"
         d="M 5530.8,222.898 V 104.461 c 0,-21.9727 -3.82,-40.7813 -11.45,-56.4219 -7.64,-15.6407 -18.77,-27.5586 -33.38,-35.75 C 5471.34,4.10156 5453.8,0 5433.32,0 c -20.85,0 -38.74,3.87109 -53.63,11.6016 -14.9,7.7187 -26.22,18.9297 -33.93,33.6484 -7.75,14.7109 -11.6,32.3984 -11.6,53.0703 V 310.32 c 0,21.969 3.81,40.739 11.45,56.289 7.64,15.539 18.76,27.411 33.37,35.602 14.62,8.199 32.18,12.301 52.67,12.301 20.1,0 37.33,-3.961 51.67,-11.871 14.33,-7.922 25.27,-19.461 32.82,-34.641 7.53,-15.168 11.31,-33.371 11.31,-54.609 V 293.84 h -43.58 v 19.551 c 0,13.23 -2,24.488 -6,33.8 -4.01,9.309 -9.92,16.391 -17.74,21.219 -7.82,4.852 -17.31,7.27 -28.48,7.27 -12.11,0 -22.45,-2.551 -31.01,-7.68 -8.56,-5.109 -15.09,-12.559 -19.55,-22.34 -4.47,-9.769 -6.71,-21.558 -6.71,-35.34 V 98.3203 c 0,-12.4687 2.32,-23.1914 6.98,-32.1211 4.66,-8.9375 11.36,-15.7304 20.12,-20.3906 8.75,-4.6602 19.36,-6.9883 31.84,-6.9883 12.1,0 22.44,2.5117 31,7.5391 8.57,5.0312 15.09,12.3906 19.55,22.0703 4.47,9.6797 6.71,21.3203 6.71,34.9223 v 82.117 h -58.66 v 37.429 h 98.88"
         inkscape:connector-curvature="0" /><path
         id="path70"
         style="fill:#231f20;fill-opacity:1;fill-rule:nonzero;stroke:none"
         d="M 5759.81,372.891 V 410.32 H 5585.52 V 4.19141 h 27.65 12.57 134.07 V 41.6211 H 5625.74 V 187.141 h 120.1 v 37.429 h -120.1 v 148.321 h 134.07"
         inkscape:connector-curvature="0" /><path
         id="path72"
         style="fill:#231f20;fill-opacity:1;fill-rule:nonzero;stroke:none"
         d="M 5960.34,410.32 V 94.1797 L 5838.28,410.32 h -37.71 V 4.46875 h 39.66 V 320.531 L 5961.73,4.46875 H 6000 V 410.32 h -39.66"
         inkscape:connector-curvature="0" /><path
         id="path74"
         style="fill:#231f20;fill-opacity:1;fill-rule:nonzero;stroke:none"
         d="m 591.621,1450.4 c 0,-37.61 -5.851,-69.69 -17.558,-96.3 -11.704,-26.6 -28.918,-46.81 -51.606,-60.65 -22.715,-13.83 -49.664,-20.75 -80.871,-20.75 H 153.227 v 661.85 h 288.359 c 31.926,0 59.059,-7.1 81.402,-21.28 22.348,-14.2 39.371,-34.95 51.075,-62.24 11.707,-27.33 17.558,-60.49 17.558,-99.49 z m 116.52,477.24 c -24.481,48.57 -59.961,85.66 -106.411,111.2 -46.472,25.53 -102.335,38.3 -167.589,38.3 H 153.227 111.73 0 V 529.988 h 153.227 v 600.132 h 280.914 c 65.254,0 121.117,12.4 167.589,37.24 46.45,24.82 81.93,61 106.411,108.53 24.472,47.52 36.707,104.98 36.707,172.38 v 303.27 c 0,68.79 -12.235,127.5 -36.707,176.1"
         inkscape:connector-curvature="0" /><path
         id="path76"
         style="fill:#231f20;fill-opacity:1;fill-rule:nonzero;stroke:none"
         d="m 1085.95,1326.97 v 608.65 h 227.71 c 46.1,0 85.66,-9.05 118.64,-27.14 32.99,-18.08 58.15,-44.34 75.55,-78.74 17.37,-34.42 26.07,-75.73 26.07,-123.96 v -159.61 c 0,-46.13 -8.7,-85.66 -26.07,-118.64 -17.4,-32.99 -42.56,-57.99 -75.55,-75.02 -32.98,-17.03 -72.54,-25.54 -118.64,-25.54 z M 1730.77,529.988 1502.88,1223.5 c 2.52,1.18 5.15,2.22 7.63,3.45 57.46,28.35 101.25,69.7 131.41,123.96 30.15,54.27 45.23,119.34 45.23,195.26 v 180.89 c 0,73.77 -15.08,137.08 -45.23,189.94 -30.16,52.82 -73.95,92.92 -131.41,120.24 -57.46,27.3 -126.62,40.96 -207.49,40.96 h -217.07 -58.53 -94.701 V 529.988 h 153.231 v 654.402 h 217.07 c 20.03,0 39.33,0.88 57.92,2.62 l 192.13,-657.022 h 177.7"
         inkscape:connector-curvature="0" /><path
         id="path78"
         style="fill:#231f20;fill-opacity:1;fill-rule:nonzero;stroke:none"
         d="m 2406.54,691.191 c 34.39,18.09 60.65,44.508 78.74,79.278 18.08,34.73 27.13,76.613 27.13,125.551 v 815.08 c 0,48.95 -9.05,90.79 -27.13,125.56 -18.09,34.74 -44.35,61.18 -78.74,79.27 -34.43,18.09 -76.09,27.14 -125.03,27.14 -48.95,0 -90.64,-9.05 -125.03,-27.14 -34.42,-18.09 -60.65,-44.53 -78.74,-79.27 -18.09,-34.77 -27.13,-76.61 -27.13,-125.56 V 896.02 c 0,-48.938 9.04,-90.821 27.13,-125.551 18.09,-34.77 44.32,-61.188 78.74,-79.278 34.39,-18.089 76.08,-27.132 125.03,-27.132 48.94,0 90.6,9.043 125.03,27.132 z m -332.53,-131.41 c -57.46,30.481 -101.27,74.828 -131.41,133.008 -30.16,58.141 -45.22,128.383 -45.22,210.68 v 800.181 c 0,82.28 15.06,152.51 45.22,210.69 30.14,58.15 73.95,102.49 131.41,133 57.46,30.5 126.63,45.76 207.5,45.76 80.87,0 150.03,-15.26 207.49,-45.76 57.46,-30.51 101.25,-74.85 131.42,-133 30.13,-58.18 45.21,-128.41 45.21,-210.69 V 903.469 c 0,-82.297 -15.08,-152.539 -45.21,-210.68 -30.17,-58.18 -73.96,-102.527 -131.42,-133.008 -57.46,-30.492 -126.62,-45.761 -207.49,-45.761 -80.87,0 -150.04,15.269 -207.5,45.761"
         inkscape:connector-curvature="0" /><path
         id="path80"
         style="fill:#264a8b;fill-opacity:1;fill-rule:nonzero;stroke:none"
         d="m 2752.43,1934.55 h 299 V 529.988 h 153.22 V 1934.55 h 299.01 v 142.59 h -751.23 v -142.59"
         inkscape:connector-curvature="0" /><path
         id="path82"
         style="fill:#264a8b;fill-opacity:1;fill-rule:nonzero;stroke:none"
         d="M 3695.8,2077.14 H 3590.45 V 529.988 h 663.99 v 142.571 h -510.75 v 554.391 h 457.55 v 142.59 h -457.55 v 565.01 h 510.75 v 142.59 h -510.75 -47.89"
         inkscape:connector-curvature="0" /><path
         id="path84"
         style="fill:#264a8b;fill-opacity:1;fill-rule:nonzero;stroke:none"
         d="m 4948.8,2046.28 c -53.91,31.21 -118.82,46.82 -194.71,46.82 -75.93,0 -140.65,-15.61 -194.2,-46.82 -53.58,-31.23 -94.54,-76.46 -122.9,-135.67 -28.38,-59.24 -42.56,-130.72 -42.56,-214.41 V 909.859 c 0,-83 14.18,-154.129 42.56,-213.347 28.36,-59.242 69.51,-104.461 123.43,-135.66 53.9,-31.211 118.46,-46.832 193.67,-46.832 75.89,0 140.8,15.621 194.71,46.832 53.9,31.199 94.87,76.418 122.9,135.66 28.02,59.218 42.04,130.347 42.04,213.347 v 56.403 h -153.23 v -56.403 c 0,-52.519 -7.98,-97.211 -23.94,-134.07 -15.96,-36.91 -39.37,-65.098 -70.23,-84.598 -30.86,-19.519 -68.29,-29.261 -112.25,-29.261 -43.28,0 -80.34,9.742 -111.2,29.261 -30.86,19.5 -54.46,47.879 -70.77,85.118 -16.32,37.25 -24.47,81.75 -24.47,133.55 V 1696.2 c 0,52.49 8.15,97.37 24.47,134.61 16.31,37.24 39.91,65.6 70.77,85.12 30.86,19.5 67.92,29.27 111.2,29.27 43.96,0 81.39,-9.77 112.25,-29.27 30.86,-19.52 54.27,-47.72 70.23,-84.59 15.96,-36.89 23.94,-81.59 23.94,-134.07 v -56.4 h 153.23 v 56.4 c 0,83 -14.02,154.1 -42.04,213.34 -28.03,59.21 -69,104.44 -122.9,135.67"
         inkscape:connector-curvature="0" /><path
         id="path86"
         style="fill:#264a8b;fill-opacity:1;fill-rule:nonzero;stroke:none"
         d="m 5845.37,2077.14 v -713.99 h -406.48 v 713.99 H 5285.67 V 529.988 h 153.22 v 690.572 h 406.48 V 529.988 h 153.22 V 2077.14 h -153.22"
         inkscape:connector-curvature="0" /></g></g></svg>